<?xml version="1.0" encoding="UTF-8"?>
<svg width="174px" height="38px" viewBox="0 0 174 38" version="1.1" xmlns="http://www.w3.org/2000/svg" xmlns:xlink="http://www.w3.org/1999/xlink">
    <!-- Generator: Sketch 58 (84663) - https://sketch.com -->
    <title>logo</title>
    <desc>Created with Sketch.</desc>
    <g id="Page-1" stroke="none" stroke-width="1" fill="none" fill-rule="evenodd">
        <g id="Homepage" transform="translate(-633.000000, -24.000000)" fill="#0FD284">
            <g id="Header---Phase-1" transform="translate(30.000000, 24.000000)">
                <path d="M705.054296,0.235912492 C705.770192,0.395533968 706.445604,0.728679436 707.152788,0.937732079 C708.427769,1.31464473 709.204646,2.31150659 709.985111,3.26511618 C710.301807,3.65181208 710.407372,4.23520283 710.539584,4.74753628 C710.763014,5.61567115 710.807597,6.50594706 710.770188,7.40394659 C710.740466,8.1140047 710.764039,8.82612245 710.764039,9.53772529 L710.85218,9.58767136 C710.713306,9.65769885 710.573919,9.72566671 710.436069,9.79775382 C709.317386,10.3832042 708.20024,10.971744 707.079507,11.5525602 C706.91296,11.6390648 706.733089,11.699309 706.556806,11.7641874 C706.109435,11.9294729 705.719459,11.6854065 705.666676,11.2003632 L705.560471,10.2802226 C705.527161,9.97333745 705.499873,9.66619483 705.490393,9.35853731 C705.478606,8.95536436 705.59647,8.54961686 705.616968,8.14335446 C705.646691,7.56768733 705.667189,6.98841584 705.640541,6.41326362 C705.608769,5.73307017 705.012275,5.14401543 704.279468,5.06368978 C703.877706,5.0194077 703.464669,5.02816113 703.060344,5.0580258 C702.603237,5.09303954 702.209674,5.29127912 701.971896,5.70578005 C701.888366,5.85046919 701.871455,6.03377643 701.821235,6.19854699 C701.534262,7.13876898 701.737193,8.12069851 701.581407,9.07327828 C701.563471,9.18192387 701.579357,9.30962105 701.620354,9.41157283 C702.059013,10.5067821 702.608361,11.5293894 703.381652,12.4387169 C703.9351,13.0890457 704.391183,13.8233045 704.885187,14.5235793 C705.633367,15.5848047 706.306217,16.7109085 707.141001,17.6979871 C708.378061,19.1618705 709.280489,20.8193593 710.149608,22.5005339 C710.612865,23.3964738 710.721505,24.4046636 710.746615,25.4071895 C710.767626,26.2361913 710.749177,27.066223 710.738416,27.8962547 C710.736366,28.0723532 710.692295,28.2484517 710.67231,28.4255801 C710.633363,28.7752026 710.573406,29.1237953 710.566744,29.4739328 C710.541122,30.8791167 710.53856,32.2843006 710.509862,33.6889695 C710.506275,33.8686724 710.414034,34.0514648 710.342803,34.2249888 C709.746308,35.6754846 708.633262,36.5899611 707.26399,37.2593415 C706.554756,37.6053597 705.805551,37.7119457 705.042509,37.8339788 C704.335838,37.9477735 703.638903,38.0600235 702.927107,37.9632208 C702.317801,37.8808355 701.715157,37.7407805 701.104827,37.6717828 C699.83907,37.5286384 698.954577,36.7676044 698.14234,35.8824776 C696.930391,34.5627684 696.423576,32.9989928 696.483533,31.2102025 C696.504543,30.5876787 696.342096,29.9615506 696.312373,29.3349076 C696.270865,28.4544149 696.279577,27.5713477 696.256004,26.6893104 C696.250879,26.4926155 696.176061,26.2974654 696.174011,26.1007705 C696.172474,25.9390894 696.180673,25.734156 696.273427,25.6234508 C696.479945,25.3752652 696.742833,25.1996816 697.0995,25.1780554 C697.943509,25.1281093 698.788543,24.9751817 699.627427,25.0091656 C700.067623,25.0266725 700.491934,25.0987596 700.937255,25.0045314 C701.169396,24.9561301 701.349266,25.2156437 701.353878,25.5251034 C701.362078,26.1867602 701.338505,26.8494467 701.372839,27.5100737 C701.408198,28.1876926 701.506589,28.862737 701.560397,29.5403559 C701.602418,30.0727707 701.60293,30.6093049 701.652126,31.1412048 C701.69056,31.5577654 701.766915,31.9717514 701.844295,32.3831629 C701.863768,32.4845998 701.936537,32.5958199 702.016992,32.6627579 C702.899947,33.3990763 704.723764,33.2955798 705.511403,32.4640034 C705.590833,32.3805883 705.639516,32.2544359 705.671801,32.1396114 C705.95365,31.1298768 705.979272,30.1129336 705.748669,29.0892965 C705.728171,28.9981578 705.73227,28.9013551 705.731758,28.806612 C705.728171,27.7896687 705.725608,26.7722105 705.722021,25.7547524 C705.722021,25.6821503 705.730733,25.6028545 705.706648,25.5374612 L705.480673,24.9252026 C705.177202,24.1109395 704.846445,23.3129557 704.265119,22.6266863 C703.268912,21.4516663 702.331125,20.2267002 701.578845,18.8740369 C701.342092,18.4487229 701.097652,18.0491543 700.709726,17.7407244 C700.541642,17.6068484 700.39918,17.4250858 700.284391,17.239719 C699.771426,16.4127767 699.277422,15.5734767 698.76702,14.7449898 C698.432388,14.200732 698.078284,13.6688321 697.736991,13.1286936 C697.603241,12.9165515 697.47154,12.70132 697.353676,12.4788797 C697.066191,11.9351369 696.828925,11.3908791 696.722848,10.7575423 C696.557326,9.7704637 696.460985,8.7777211 696.475846,7.79064249 C696.489682,6.93692504 696.297512,6.09916975 696.446636,5.22846034 C696.731559,3.56839699 697.602216,2.37741481 698.972,1.46345313 C700.086584,0.719411093 701.319544,0.345072985 702.603749,0.0757761079 C703.435972,-0.0982627919 704.255895,0.0582692363 705.054296,0.235912492 Z M748.852511,0.381631453 C749.389048,0.41304084 749.867166,0.458867651 750.345284,0.464531639 C751.452181,0.477404338 752.559078,0.47946397 753.665975,0.464016731 C753.90529,0.460412375 754.038015,0.574721948 754.085161,0.757514284 C754.166128,1.0680038 754.236334,1.39239583 754.237871,1.71112388 C754.25222,4.60902603 754.250683,7.50692819 754.25427,10.4048303 C754.255295,11.2317726 754.273231,12.0602595 754.252732,12.8866868 C754.243508,13.2723529 754.152292,13.6549296 754.117958,14.0405956 C754.096947,14.2774533 754.113858,14.5174004 754.163053,14.7588923 C754.368034,14.2084556 754.598638,13.6657426 754.773384,13.1055227 C755.040884,12.2466562 755.26585,11.3754319 755.515927,10.5109014 C755.691186,9.90794413 755.882843,9.30962105 756.058614,8.7066638 C756.326114,7.78703813 756.590539,6.86638265 756.84984,5.94418244 C757.16961,4.80726561 757.484769,3.66880405 757.798902,2.52982758 C757.881919,2.22706168 757.95315,1.92017652 758.03053,1.6158659 C758.217063,0.879547477 758.75565,0.50778391 759.502805,0.651958146 C760.385761,0.822907598 761.269228,0.800251647 762.155258,0.723530356 C762.638501,0.682337717 763.080234,0.749790664 763.382069,1.1776792 C763.436389,1.25440049 763.460474,1.39600019 763.430752,1.48301964 C763.013616,2.67915089 762.573419,3.86704362 762.164995,5.06574942 C761.980512,5.60846244 761.901594,6.19082337 761.693026,6.72375314 C760.701944,9.25143645 759.809764,11.8105291 759.137427,14.4442835 C759.065171,14.7274829 759.034937,15.0225252 758.962681,15.3057246 C758.880176,15.6285719 758.781785,15.9488446 758.67212,16.2634534 C758.403083,17.0347856 758.121234,17.8014836 757.851684,18.5723008 C757.826574,18.6438731 757.830161,18.7386161 757.853734,18.812248 C758.482001,20.7879499 759.114879,22.7621071 759.74622,24.7362644 C759.765693,24.7959937 759.781067,24.8572677 759.803102,24.9164822 C760.576905,26.9586072 761.099094,29.0836325 761.924655,31.1170041 C762.674885,32.9629493 763.15044,34.9226891 763.740273,36.8350573 C763.860699,37.2258725 763.726437,37.4272015 763.324162,37.5121614 C763.242169,37.5296682 763.15864,37.5415111 763.075622,37.5471751 C762.393548,37.5914572 761.711475,37.6475822 761.028376,37.670753 C760.718342,37.6815661 760.405234,37.6213218 760.093663,37.5986659 C759.803615,37.5775547 759.510492,37.5373918 759.221469,37.5518093 C758.634711,37.5801292 758.211426,37.2315365 758.091,36.6507203 C757.963399,36.0364351 757.775329,35.4360523 757.63338,34.8253715 C757.502704,34.2646367 757.397652,33.6982379 757.282862,33.1344136 C757.265439,33.0530582 757.271076,32.9614046 757.234692,32.8903473 C756.761699,31.9758707 756.585415,30.9681957 756.324064,29.9878109 C755.717833,27.7134623 755.194107,25.415428 754.393657,23.1966895 C754.266569,22.8450073 754.224548,22.4634605 754.136918,22.0973609 C754.115908,22.0098266 754.070299,21.9284711 754.036478,21.8440262 C754.004706,21.8491753 753.973958,21.8543244 753.942186,21.8599883 C753.933987,21.9325904 753.918614,22.0051924 753.918614,22.0783093 C753.919639,23.8712189 753.921688,25.6646435 753.925275,27.4575531 C753.927838,29.0105156 753.930912,30.5629632 753.938087,32.1159256 C753.940649,32.6189907 753.935525,33.1236006 753.971396,33.6256359 C754.046727,34.6899507 754.132819,35.7542655 754.243508,36.8160058 C754.281942,37.1877693 754.24812,37.3267945 753.874543,37.3298839 C752.622109,37.3401821 751.369164,37.3190709 750.115706,37.3170112 C749.952746,37.3164963 749.787224,37.3772555 749.626314,37.3643828 C749.383924,37.3448163 749.142559,37.2953851 748.906318,37.2346259 C748.866347,37.2248427 748.834575,37.0986902 748.83355,37.0255733 C748.823301,36.0915302 748.822276,35.1569722 748.811002,34.2229291 C748.80844,34.0355026 748.763857,33.8491059 748.75617,33.6616794 C748.747458,33.4562311 748.761294,33.2502679 748.762319,33.0448197 C748.763344,32.7889104 748.751045,32.5319713 748.762319,32.276062 C748.772568,32.0268466 748.806903,31.7786609 748.827401,31.5289305 C748.846874,31.2889834 748.872497,31.0485214 748.878134,30.8075444 C748.91503,29.1181313 748.993948,27.4276884 748.96935,25.7382753 C748.946802,24.1667761 748.81254,22.5973366 748.728498,21.0263523 C748.712099,20.7122584 748.686989,20.3976497 748.690064,20.0835558 C748.744384,14.3927927 748.805878,8.70202963 748.855073,3.01178145 C748.859173,2.52004433 748.78333,2.0283072 748.761807,1.53605516 C748.755145,1.39188092 748.811515,1.24513215 748.834063,1.09889828 C748.846362,1.02011736 748.850461,0.939791711 748.851486,0.860495881 C748.854561,0.709627841 748.852511,0.558244892 748.852511,0.381631453 Z M626.428803,0.568697525 C626.503109,0.650052987 626.588688,0.819972623 626.551792,0.889485201 C626.203324,1.54959724 626.321188,2.27252806 626.281217,2.96353458 C626.213061,4.14730804 626.213061,5.33571567 626.210498,6.52206368 L626.204797,12.5387635 L626.204861,18.5554634 C626.204861,20.8962351 626.202812,23.2370068 626.209986,25.5772636 C626.212036,26.2373756 626.254057,26.8964578 626.258156,27.5555401 C626.260719,27.9901224 626.236121,28.4247048 626.206911,28.8582573 C626.200762,28.9535153 626.125944,29.044654 626.099809,29.1012938 C626.143367,29.2650346 626.207936,29.3989107 626.211011,29.5343315 C626.258669,31.8756181 626.300178,34.2169047 626.339124,36.5581913 C626.351935,37.3511496 626.268918,37.4402287 625.485891,37.4876002 C625.278348,37.5009879 625.06363,37.5148904 624.860187,37.4803915 C623.93726,37.3238595 623.034832,37.51695 622.128304,37.6266254 C621.563582,37.6945933 621.31453,37.5231289 621.304281,36.945917 C621.262772,34.657151 621.223313,32.368385 621.197691,30.0801339 C621.172581,27.874783 621.165406,25.6694321 621.150033,23.4640812 C621.139784,22.0362413 621.124923,20.6084015 621.119286,19.1805616 C621.114161,17.8701208 621.117748,16.5591651 621.117748,15.2487243 L621.003984,15.2286428 L620.883994,15.5202333 C620.865906,15.5692259 620.850419,15.6187715 620.839999,15.6694041 C620.633993,16.6755343 620.386991,17.6770303 620.250679,18.6924289 C620.057997,20.1362309 619.94987,21.5913608 619.803308,23.0418566 C619.789985,23.1767625 619.786397,23.3204219 619.737202,23.4439998 C619.360037,24.3929752 619.41077,25.4027098 619.312379,26.3908182 C619.271895,26.7975955 619.285732,27.2105517 619.232949,27.6152694 C619.018231,29.2501023 618.74407,30.8787562 618.586234,32.5192531 C618.52884,33.1170612 618.533964,33.7298017 618.354606,34.2987751 C618.049697,35.2621679 617.956943,36.2451273 617.919534,37.2435339 C617.91031,37.499958 617.682269,37.6554602 617.450128,37.5550532 C616.906928,37.3207701 616.343743,37.4180877 615.78517,37.4170578 C614.949361,37.4155131 614.112526,37.4407436 613.277742,37.4093342 C612.620778,37.3846186 612.405548,37.1359181 612.312282,36.4809551 C612.183656,35.5783214 612.027871,34.6792921 611.911032,33.7756286 C611.777794,32.7463275 611.723474,31.7046686 611.547191,30.6830912 C611.254068,28.9900737 610.879978,27.3119886 610.564307,25.6225755 C610.451055,25.0175586 610.408009,24.3991541 610.333704,23.7869285 C610.329604,23.7555191 610.338828,23.7220501 610.330629,23.6927003 C609.867885,22.1423124 609.742334,20.5260162 609.420001,18.9483381 C609.267291,18.2006917 609.032588,17.4700373 608.864503,16.7249655 C608.708205,16.0298397 608.591879,15.3259605 608.455566,14.6267154 C608.438143,14.5360916 608.406883,14.4480423 608.325916,14.3610229 C608.30798,14.5515388 608.272621,14.7425697 608.276721,14.9336006 C608.287482,15.5169913 608.325916,16.100897 608.327453,16.6848026 C608.327966,16.8887062 608.223938,17.0920948 608.218813,17.2970282 C608.202927,17.913888 608.204465,18.5312627 608.215226,19.1476075 C608.224963,19.7490201 608.196778,20.359186 608.285945,20.9492706 C608.57958,22.8863544 608.458641,24.836311 608.510911,26.7795737 C608.54832,28.1832129 608.435068,29.5899415 608.417645,30.9961552 C608.410471,31.5615242 608.480164,32.1268932 608.511936,32.6927771 C608.561131,33.5624567 608.598028,34.4331661 608.658497,35.3013009 C608.689245,35.7405174 608.749714,36.1776743 608.816333,36.6127716 C608.848617,36.8290329 608.79276,36.9912289 608.611352,37.0957553 C608.370499,37.2342655 608.130672,37.4247815 607.870346,37.4649443 C607.56185,37.5118009 607.23388,37.4165429 606.913598,37.3954317 C606.795734,37.3871932 606.654809,37.3794696 606.560006,37.4345647 C606.229474,37.6266254 605.884594,37.68481 605.507429,37.6559752 C604.92682,37.6127229 604.34365,37.6019098 603.762529,37.5596874 C603.652352,37.5514488 603.524751,37.4839959 603.445321,37.4041851 C603.180383,37.1374628 603.167572,36.7883552 603.169109,36.4351283 C603.177821,34.3044391 603.18807,32.1732349 603.186533,30.0420307 C603.184995,28.2995821 603.176284,26.5571335 603.155785,24.8141699 C603.138875,23.408986 603.100953,22.0032872 603.068156,20.5981033 C603.065594,20.4976963 603.023573,20.3988339 603,20.2989418 L603,19.7320281 C603.016911,19.6311061 603.035872,19.5296693 603.05022,19.4282324 C603.154248,18.6744071 603.258276,17.9200669 603.358204,17.1657267 C603.365891,17.1085719 603.334631,17.0478128 603.331044,16.9880834 C603.309521,16.6672958 603.279799,16.3465081 603.274674,16.0252055 C603.266988,15.5144168 603.285436,15.0025982 603.277749,14.4918095 C603.257251,13.1509891 603.223429,11.8101687 603.206518,10.4698632 C603.200369,9.94723161 603.24034,9.42357019 603.231116,8.90145349 C603.212155,7.77071555 603.181408,6.64049252 603.139899,5.51078439 C603.132725,5.31357463 603.048683,5.11893941 603,4.92275947 L603,4.73378824 C603.061494,4.21682062 603.147586,3.70139772 603.178333,3.18237047 C603.218817,2.5011472 603.21728,1.8178643 603.229579,1.13561122 C603.237778,0.724199737 603.512452,0.50330421 603.907553,0.570242248 C604.215537,0.622762863 604.529157,0.666530042 604.840728,0.670134398 C606.407807,0.689700902 607.975911,0.695879797 609.543502,0.701028877 C609.709024,0.701543785 609.881208,0.687126362 610.039044,0.641299551 C610.319868,0.560458997 610.423895,0.69536489 610.462842,0.939946184 C610.684221,2.31629523 610.944547,3.68749521 611.106994,5.07053806 C611.175663,5.65547354 611.468273,6.1626579 611.504145,6.755317 C611.538479,7.32583505 611.706051,7.88811457 611.805466,8.45605808 L612.3257,11.514192 C612.414431,12.0235123 612.506159,12.5322413 612.603867,13.039769 C612.764265,13.8713454 613.056362,14.6776913 613.209073,15.5113273 C613.437114,16.7584345 613.59085,18.0189292 613.784557,19.2727302 C613.909595,20.0811357 614.022335,20.8926307 614.189394,21.6922828 C614.495841,23.1587408 614.837646,24.61799 615.165103,26.0808436 C615.188164,26.1817656 615.217373,26.2816577 615.300391,26.386184 C615.3378,26.1750718 615.377258,25.9644744 615.41313,25.7533621 C615.483849,25.3295928 615.557129,24.9068534 615.621186,24.4825692 C615.787733,23.386845 615.947618,22.2895761 616.115702,21.1943668 C616.156698,20.9250699 616.258676,20.6604072 616.264313,20.3916252 C616.27405,19.9215142 616.339131,19.4838425 616.508241,19.0317532 C616.65019,18.6543257 616.598945,18.2037812 616.630717,17.7856759 C616.647628,17.555512 616.638916,17.3222587 616.675812,17.0962141 C617.010956,15.0067175 617.328677,12.9146463 617.702254,10.8323584 C617.963605,9.37671356 618.127077,7.91180034 618.302848,6.4458573 C618.44326,5.28062052 618.664639,4.12619681 618.829649,2.96404948 C618.914204,2.36469659 618.966986,1.7596797 619.007982,1.15517772 C619.037705,0.715446301 619.338514,0.473439547 619.756163,0.586204396 C619.876077,0.619158507 620.003165,0.635120655 620.126666,0.638725011 C621.002446,0.666015134 621.878227,0.704633233 622.753496,0.703603417 C623.230589,0.703603417 623.707169,0.624822495 624.184775,0.597532372 C624.442026,0.58260004 624.702352,0.616583967 624.959603,0.604741084 C625.357778,0.586719304 625.754928,0.544496849 626.153104,0.521840898 C626.24637,0.516691818 626.37807,0.514117278 626.428803,0.568697525 Z M645.281254,0.428800734 C646.241589,0.433997595 647.202437,0.421124895 648.161748,0.45562373 C648.62603,0.472100786 649.089799,0.567358764 649.549469,0.65025895 C649.870776,0.707928644 650.046035,0.949420491 650.034248,1.2593951 C649.990177,2.36696218 650.454972,3.39626325 650.503655,4.48683837 C650.510316,4.64903438 650.47547,4.81277512 650.455997,4.97497114 C650.447285,5.04499862 650.405776,5.11708574 650.41705,5.18196415 C650.493406,5.62478502 650.60307,6.06348662 650.658415,6.50888203 C650.777817,7.45579782 650.90183,8.40374343 650.967424,9.35477848 C651.137558,11.819643 651.736615,14.2222037 651.995403,16.6721359 C652.104555,17.6998922 652.486845,18.6941796 652.365906,19.7502558 C652.35412,19.8578716 652.417151,19.9721812 652.439699,20.084946 C652.492482,20.3521833 652.593435,20.6214802 652.583698,20.8866578 C652.543214,22.0173957 652.726672,23.1223883 652.913717,24.2289255 C652.936265,24.3628016 652.948052,24.5007969 652.944977,24.6367326 C652.924479,25.5342173 653.019795,26.4244932 653.111011,27.3142542 C653.120748,27.4059078 653.149958,27.4955018 653.169431,27.5850958 L653.269359,27.5959089 C653.339565,27.2236304 653.432319,26.8549563 653.47434,26.4795883 C653.579905,25.5429707 653.726979,24.6032636 653.733641,23.6645864 C653.73979,22.8881051 653.976543,22.1461227 653.98423,21.3989912 C653.990892,20.7502072 653.979618,20.0947293 654.062635,19.4567583 C654.151289,18.775535 654.227132,18.1061546 654.185111,17.4166928 C654.17025,17.1685072 654.366519,16.9141426 654.405978,16.6535992 C654.506931,15.9790697 654.568426,15.2993912 654.656567,14.6238319 C654.748809,13.9168633 654.862061,13.2124691 654.950203,12.5055005 C655.104451,11.2702362 655.393474,10.0468148 655.268435,8.78580516 C655.24845,8.58190159 655.314556,8.37078932 655.336591,8.16225158 C655.389887,7.66485047 655.43652,7.16693444 655.492889,6.67004823 C655.581544,5.89099245 655.681472,5.11245157 655.764489,4.33236597 C655.873641,3.31233325 656.088359,2.30002414 655.947947,1.26196964 C655.898752,0.896899876 656.037626,0.746546743 656.398392,0.669825453 C656.469623,0.654893122 656.543416,0.643565146 656.615672,0.640990606 C658.025428,0.598253243 659.435184,0.556545696 660.84494,0.516897781 C661.011487,0.512263609 661.179572,0.519987229 661.346631,0.528225757 C661.815525,0.551396616 662.000008,0.879393004 661.888806,1.33869093 C661.734557,1.97872156 661.622843,2.63110998 661.52394,3.28246858 C661.239529,5.16857654 660.973053,7.05777395 660.693767,8.94491172 C660.6128,9.49483345 660.512871,10.0416657 660.423192,10.5900427 C660.409868,10.6729429 660.390395,10.7579027 660.39757,10.8397731 C660.50211,12.1064468 660.154667,13.3334725 660.060376,14.5836691 C659.966085,15.8348955 659.708834,17.0732492 659.543824,18.3203564 C659.355754,19.7456217 659.195869,21.1734615 659.011899,22.5992417 C658.864313,23.7433673 658.712114,24.8869779 658.534806,26.0269842 C658.429753,26.7066628 658.272943,27.3786177 658.140218,28.0546919 C658.132018,28.0953696 658.11767,28.1448008 658.133043,28.1782698 C658.429753,28.8229346 658.085385,29.4336155 658.029015,30.0566541 C657.868618,31.842355 657.674399,33.6254814 657.505289,35.4101525 C657.482741,35.64804 657.552947,35.8936511 657.532962,36.1320535 C657.507852,36.4291554 657.481716,36.7432493 657.368465,37.013061 C657.172195,37.4826571 657.027684,37.5228199 656.527018,37.4558819 C656.258493,37.4198384 655.985356,37.4013017 655.714269,37.4054209 C654.472597,37.4239576 653.2299,37.4394049 651.988229,37.4836869 C651.206227,37.511492 650.423712,37.5748257 649.644785,37.6505171 C649.428017,37.6716284 649.31989,37.6082947 649.277356,37.4224129 C649.170766,36.9543615 649.088262,36.4801313 648.976547,36.0131097 C648.903779,35.7098289 648.774641,35.4194208 648.711609,35.1156251 C648.640891,34.7696069 648.607069,34.4143204 648.573247,34.0621234 C648.468194,32.9777271 648.323683,31.8948756 648.281662,30.80739 C648.229904,29.4655398 647.862476,28.1787847 647.699004,26.8585606 C647.603175,26.0892881 647.542193,25.3153814 647.469937,24.5430194 L647.265108,22.3095393 C647.229996,21.9373561 647.193384,21.5653065 647.153754,21.1935429 C647.112758,20.8094216 646.98157,20.4355984 646.939549,20.051477 C646.898553,19.6725047 647.027691,19.2384373 646.884205,18.9176496 C646.710483,18.5299239 646.733544,18.171033 646.731494,17.7889713 C646.730469,17.6319244 646.702796,17.4759073 646.69511,17.3183454 L646.643352,16.1263334 C646.626441,15.793188 646.614142,15.4595276 646.575708,15.1284417 C646.445033,13.9889504 646.31487,12.8489441 646.163184,11.7120272 C645.992538,10.4350554 645.819329,9.15705381 645.610761,7.8862609 C645.294578,5.96153484 644.943548,4.04350259 644.616603,2.12083616 C644.557159,1.77069873 644.538198,1.41232277 644.511551,1.05703626 C644.481829,0.655922938 644.62634,0.48909275 645.031177,0.441721215 C645.113682,0.431937963 645.197724,0.428333607 645.281254,0.428800734 Z M739.080816,0.546402009 C739.820284,0.586049924 740.558728,0.639600354 741.297684,0.689546429 C741.791688,0.723015448 742.063288,0.979439626 742.107359,1.46963203 C742.196013,2.46288954 742.250845,3.4597514 742.371784,4.44888965 C742.453264,5.11466568 742.648508,5.76550937 742.747924,6.42974068 C742.867838,7.2371164 742.940093,8.05170084 743.03336,8.86268092 C743.181458,10.143772 743.332119,11.4243482 743.479193,12.7059541 C743.59552,13.7275316 743.688786,14.7516836 743.825098,15.7701716 C744.181253,18.4178284 744.559955,21.0623959 744.919696,23.7095378 C745.040635,24.6018734 745.130827,25.4988431 745.236392,26.3937532 C745.317359,27.0780659 745.390128,27.7639233 745.486469,28.4461764 C745.688375,29.8874039 745.898993,31.3276015 746.11371,32.7667693 C746.275133,33.8444718 746.442192,34.9221742 746.618988,35.9983319 C746.672283,36.3170599 746.781948,36.6265196 746.839855,36.9447328 C746.86189,37.0672809 746.854204,37.2773633 746.785535,37.3170112 C746.658959,37.3901282 746.476014,37.3849791 746.318691,37.3782853 C746.114735,37.3690169 745.913854,37.3067131 745.709898,37.3010491 C745.079069,37.2835422 744.447215,37.2804528 743.816387,37.273759 C743.461257,37.2696397 743.10664,37.262431 742.752024,37.2686099 C742.287229,37.2758186 741.82346,37.3082578 741.359691,37.2974447 C741.273599,37.2959 741.136774,37.1517258 741.116276,37.0538932 C741.036846,36.6759508 740.988675,36.2907996 740.942555,35.9066782 C740.927181,35.7743469 740.953316,35.6378963 740.956903,35.5029904 C740.961515,35.3047508 740.9938,35.1018771 740.961515,34.9093015 C740.831353,34.1147985 740.679154,33.3238998 740.537205,32.5309415 C740.448038,32.0304509 740.450601,32.0407491 739.95096,32.0541367 C739.440045,32.0680392 738.928618,32.0572261 738.41719,32.0572261 L738.41719,32.1282834 C737.915499,32.1282834 737.413809,32.1370369 736.91263,32.1267387 C736.236194,32.1123213 736.102956,32.2477421 736.008152,32.9130032 C735.820082,34.2409509 735.60229,35.5642644 735.394235,36.8896376 C735.376811,37.0029174 735.348114,37.116712 735.30968,37.2248427 C735.241011,37.413299 735.124172,37.4884756 734.900743,37.4673644 C734.605058,37.4390444 734.298099,37.4452233 734.004464,37.4925949 C733.016456,37.6537611 732.027936,37.6218368 731.036341,37.5466602 C730.904641,37.536362 730.770891,37.5518093 730.638165,37.5579882 C730.023223,37.5888826 729.816192,37.4127841 729.886911,36.8968463 C729.966341,36.3170599 730.099578,35.745512 730.18772,35.1672704 L730.939487,30.1294106 C731.183927,28.5234126 731.439128,26.9194742 731.690742,25.314506 C731.706628,25.2110095 731.722002,25.107513 731.741475,25.0040165 C732.171423,22.7064971 732.374866,20.3806577 732.584459,18.0553332 C732.62238,17.6315639 732.761255,17.2175779 732.817625,16.7938087 C732.916016,16.0456473 732.984684,15.2933668 733.071801,14.5431458 C733.08615,14.4195679 733.115872,14.2929006 733.165067,14.1791059 C733.352112,13.7465832 733.382347,13.3017027 733.391059,12.8315917 C733.400283,12.3460335 733.572979,11.8666541 733.631911,11.3795512 C733.733889,10.5258337 733.798971,9.66799701 733.88865,8.81324975 C733.96398,8.09495311 733.960393,7.35142597 734.153588,6.66505363 C734.513329,5.38550728 734.417501,4.06425338 734.637855,2.77749832 C734.737783,2.19050321 734.867946,1.60505283 735.027319,1.03093043 C735.158507,0.560819432 735.276883,0.568543052 735.757051,0.613340047 C736.675365,0.698814773 737.600854,0.829601402 738.52173,0.595318267 C738.701089,0.549491457 738.895308,0.536618757 739.080816,0.546402009 Z M688.310586,0.46363063 C689.866903,0.496610406 691.423733,0.535228505 692.979538,0.589808752 C693.076391,0.5928982 693.235764,0.731408449 693.250113,0.82563661 C693.311095,1.21439214 693.364902,1.6113862 693.352603,2.00271627 C693.324418,2.95684077 693.233202,3.90787582 693.211679,4.86148542 C693.177857,6.32948809 693.289059,7.79543113 693.155309,9.26652325 C693.082028,10.0759586 693.194768,10.9013561 693.202455,11.7200598 C693.211166,12.5691431 693.183494,13.4177114 693.193231,14.2667947 C693.200917,14.9567714 693.246013,15.6467481 693.264461,16.3372397 C693.30187,17.6703365 693.324931,19.0039482 693.367977,20.3365301 C693.379251,20.6815184 693.465855,21.0239322 693.474054,21.3684057 C693.484816,21.8153458 693.456631,22.2628009 693.43562,22.709741 C693.408973,23.2962212 693.374639,23.8816716 693.339279,24.4676369 C693.288547,25.2956089 693.188618,26.123066 693.191181,26.9505232 C693.195793,28.5874157 693.300846,30.2243082 693.279835,31.8601708 C693.262924,33.1216954 693.510951,34.3600491 693.495065,35.6174544 C693.48994,36.0371044 693.510951,36.4588141 693.558097,36.8753746 C693.595506,37.2074903 693.455094,37.4361094 693.172732,37.5045922 C692.837076,37.5864626 692.47836,37.6086036 692.131942,37.595216 C691.698407,37.5792539 691.267435,37.4989282 690.834925,37.4505269 C690.420864,37.4047001 690.002703,37.3820441 689.591716,37.3161359 C689.288857,37.2677345 689.007008,37.2213928 688.711323,37.3763801 C688.590897,37.4397138 688.411539,37.3990361 688.260878,37.3871932 C688.137889,37.376895 688.00209,37.2888458 687.899087,37.321285 C687.461965,37.4597952 687.326678,37.1441566 687.175504,36.8614721 C687.140657,36.7965937 687.176017,36.6910376 687.183703,36.605048 C687.204714,36.3692201 687.27287,36.1277282 687.240586,35.899624 C687.141682,35.1957448 687.028943,34.4918656 686.876744,33.7977696 C686.608732,32.5697141 686.308435,31.3493821 686.020437,30.1259607 C685.64276,28.5251118 685.235872,26.9299269 684.898679,25.3198096 C684.738281,24.5536265 684.758779,23.75037 684.607606,22.9805826 C684.434397,22.0990601 684.147936,21.2401936 683.936806,20.3643351 C683.690829,19.3458471 683.464325,18.3227249 683.247558,17.2970282 C683.188626,17.0174332 683.19375,16.7244505 683.169665,16.4371319 C683.127644,16.4402213 683.085623,16.4438257 683.043602,16.4469151 C683.043602,16.8686248 683.039502,17.2913642 683.045139,17.7130739 C683.048726,17.9849453 683.097409,18.2604211 683.070249,18.5286881 C683.014392,19.0672819 683.031303,19.5852793 683.185551,20.1146047 C683.25627,20.3566115 683.14763,20.650624 683.116883,20.9616284 C683.13943,21.0697591 683.203999,21.2334998 683.202462,21.3962107 C683.189651,22.5300381 683.13943,23.6643804 683.145067,24.7976929 C683.158904,27.567383 683.188113,30.337073 683.228085,33.1062482 C683.238846,33.8389622 683.310589,34.5716763 683.353635,35.3043904 C683.371571,35.5968581 683.38592,35.8903557 683.40898,36.1823085 C683.421279,36.3383256 683.425891,36.5010365 683.476112,36.6457257 C683.609349,37.0283023 683.519158,37.2528022 683.130719,37.3918274 C683.015417,37.43302 682.886279,37.4458927 682.762778,37.4510418 C681.781945,37.4896599 680.800599,37.5303376 679.819253,37.5555681 C679.487183,37.5643215 679.153065,37.5308525 678.819971,37.5148904 C678.518136,37.5004729 678.377724,37.3140763 678.325454,37.0370558 C678.211177,36.4263749 678.112274,35.8162089 678.303419,35.1998641 C678.333654,35.1025464 678.321355,34.9918412 678.321867,34.8873149 C678.324429,33.5114808 678.327504,32.1356466 678.323917,30.7598125 C678.323917,30.6269662 678.283433,30.493605 678.257298,30.3612737 C678.245512,30.3005146 678.20759,30.2407852 678.209128,30.1810559 C678.220914,29.6156869 678.237825,29.0513478 678.254223,28.4859788 C678.257298,28.3917506 678.283946,28.2949479 678.270622,28.2038092 C678.103562,27.0787353 678.341853,25.9613849 678.32238,24.841975 C678.297782,23.4156798 678.169156,21.9919593 678.116886,20.5651492 C678.093313,19.928208 678.140459,19.2881774 678.163007,18.6496915 C678.187605,17.9159476 678.257811,17.1811739 678.243974,16.447945 C678.204516,14.3965515 678.125085,12.345673 678.07384,10.2942796 C678.055392,9.53839467 678.078965,8.78147993 678.066666,8.02610991 C678.061029,7.72385892 678.009784,7.42263775 677.979549,7.12090167 C677.970837,7.02770332 677.947777,6.93193044 677.959051,6.84130663 C678.12816,5.50254586 678.086139,4.16738945 677.978012,2.82399451 C677.928304,2.19889621 678.068716,1.55474632 678.15532,0.923469128 C678.18658,0.693820166 678.412571,0.615554151 678.61704,0.663440594 C679.65988,0.906477164 680.692471,0.623792679 681.729674,0.624307587 C682.111964,0.624307587 682.494766,0.645933723 682.876542,0.671164214 C683.049751,0.68249219 683.221423,0.827181334 683.389507,0.626882127 C683.419742,0.59032366 683.587826,0.642329367 683.674943,0.687126362 C684.187395,0.953848699 684.531763,1.3858565 684.511777,1.95894909 C684.482568,2.78331678 684.688061,3.55722349 684.828473,4.3512116 C684.938138,4.96807137 684.910978,5.61016163 685.02218,6.2270214 C685.155417,6.967974 685.455714,7.68472591 685.533095,8.42825305 C685.670432,9.73405971 686.122927,10.9585109 686.36583,12.2323933 C686.509316,12.9826142 686.521103,13.7580656 686.669714,14.5067418 C686.990509,16.1199486 687.361012,17.723372 687.711529,19.3309148 C687.863215,20.0260406 688.016951,20.7211663 688.171199,21.4152623 C688.179398,21.4533655 688.205533,21.4873494 688.278301,21.5218483 C688.29265,21.260275 688.324422,20.997157 688.318785,20.7350689 C688.29675,19.7284237 688.248067,18.7217786 688.239355,17.7146186 C688.23423,17.1847783 688.284963,16.6533932 688.321347,16.1240678 C688.356194,15.6122493 688.519154,15.0798344 688.427937,14.5937613 C688.144551,13.0794169 688.404877,11.5645576 688.329034,10.051243 C688.253704,8.53174955 688.302387,7.00607719 688.285476,5.48349427 C688.273689,4.4351416 688.246529,3.38730385 688.219369,2.33895119 C688.206046,1.84103516 688.146601,1.35238748 687.812995,0.966721399 C687.912923,0.834390046 687.999527,0.703603417 688.103555,0.588778936 C688.156338,0.530594333 688.241917,0.462111571 688.310586,0.46363063 Z M727.7609,0.943087122 C727.761925,1.44409259 727.68352,1.94561297 727.663534,2.44764826 C727.647136,2.85391066 727.665584,3.26171779 727.669171,3.66952492 L727.685418,4.86125085 C727.68705,5.0598337 727.687107,5.25835933 727.684032,5.45677054 C727.666609,6.52520462 727.619463,7.5941536 727.824444,8.65280442 C727.845967,8.76505436 727.850579,8.88193848 727.852117,8.99727787 L727.894745,11.9578462 C727.903305,12.4512234 727.913782,12.9445625 727.927959,13.4378444 C727.940258,13.8672776 727.936159,14.2838382 727.897212,14.715846 C727.804971,15.7466918 727.835206,16.7883506 727.812658,17.8258902 C727.785498,19.0426178 727.816757,20.2644945 727.709142,21.4745282 C727.60409,22.6577868 727.719391,23.8348664 727.670708,25.0150355 C727.613826,26.3831461 727.627662,27.7538311 727.616901,29.1234864 C727.615876,29.2532432 727.657385,29.3840298 727.682495,29.5137866 C727.695819,29.5848439 727.733228,29.6543565 727.732715,29.7248989 C727.731178,30.6120854 727.801896,31.5090551 727.687107,32.3813092 C727.6292,32.8225854 727.799334,33.1979533 727.762437,33.6031859 C727.723491,34.0326191 727.646623,34.4589629 727.575905,34.9594535 C727.596403,34.9918927 727.692231,35.0886954 727.723491,35.203005 C727.911561,35.8806239 727.83828,36.5654515 727.653285,37.2219592 C727.612801,37.3656185 727.252035,37.4897114 727.034243,37.4969201 C726.537677,37.513912 726.038548,37.4418249 725.53942,37.4274075 C725.038241,37.4129901 724.536038,37.4124752 724.03486,37.4294671 C723.798107,37.4371908 723.563404,37.503099 723.326651,37.5370829 C723.182652,37.5571643 723.037115,37.5777606 722.892091,37.5767679 C722.686086,37.5746712 722.570784,37.4814728 722.568734,37.2487344 C722.56156,36.4403289 722.523638,35.6319233 722.527225,34.8235178 C722.540037,32.5347518 722.584108,30.2454709 722.580521,27.95619 C722.579496,26.9938269 722.475468,26.0319788 722.44882,25.0696158 C722.437546,24.6468763 722.50724,24.2215623 722.531325,23.7972782 C722.541574,23.6206647 722.529275,23.4425066 722.526201,23.2643484 C722.520051,22.8699289 722.492891,22.4734497 722.510827,22.0795451 C722.5303,21.6645293 722.358629,21.4317909 721.94508,21.4441487 C721.424428,21.459081 720.905827,21.5182954 720.3862,21.5368321 C719.907057,21.5533091 719.427914,21.5399215 718.918025,21.5399215 C718.919562,21.5311681 718.902651,21.5883229 718.902651,21.6465075 C718.902138,24.1134317 718.893427,26.5808707 718.909313,29.0483098 C718.915462,30.0446568 718.980031,31.0415186 719.004629,32.0378656 C719.007704,32.158869 718.930323,32.2814171 718.824758,32.3741005 C718.866779,32.4817163 718.945697,32.589847 718.945184,32.6974627 C718.936473,34.0197464 718.919049,35.3415152 718.894964,36.663799 C718.890352,36.8810901 718.884715,37.0293836 718.548034,37.1097093 C717.429351,37.3764316 716.316817,37.4655107 715.180198,37.3223663 C714.870677,37.2832333 714.549369,37.3120681 714.24856,37.2441003 C713.760193,37.1323652 713.640792,36.9305213 713.624393,36.428486 C713.552137,34.2040835 713.41685,31.979681 713.41275,29.7557934 C713.408651,27.1101961 713.522928,24.4651138 713.571098,21.8190017 C713.60492,19.9462813 713.622856,18.0730461 713.63413,16.1992959 C713.650016,13.3441311 713.658215,10.4889663 713.661802,7.63328661 C713.663339,6.40471615 713.654628,5.17614569 713.63003,3.94809014 C713.620293,3.47746424 713.52344,3.00838306 713.51934,2.53775716 C713.516266,2.16187433 713.533689,1.80143874 713.405576,1.43019008 C713.266701,1.02856185 713.57366,0.706744356 713.991821,0.702110184 C715.308824,0.688207668 716.624801,0.662462269 717.940778,0.638261594 C718.081702,0.635687054 718.234413,0.574413003 718.359964,0.612516194 C718.849356,0.763899143 718.874979,0.885417428 718.82937,1.39105707 C718.786837,1.85653389 718.835007,2.33076415 718.845256,2.80087514 C718.861142,3.51917178 718.926736,4.24055788 718.88369,4.95525016 C718.818096,6.05303399 718.826296,7.15287745 718.759164,8.24757184 C718.69357,9.32578916 718.813997,10.38444 718.871904,11.4523592 C718.897526,11.9415217 718.822708,12.4358334 718.811947,12.9280854 C718.800673,13.4615301 718.788887,13.9965195 718.817584,14.5289344 C718.853968,15.19677 718.822708,15.8476137 718.53266,16.4907338 C718.78325,16.4907338 719.016415,16.48404 719.249581,16.4917636 C719.833264,16.511845 720.415922,16.5478886 720.999605,16.5581868 C721.415204,16.5653955 721.831828,16.5489184 722.247427,16.5267774 C722.463169,16.5154494 722.504165,16.3414105 722.510827,16.1627374 C722.545674,15.2292092 722.587182,14.2956811 722.60973,13.3621529 C722.633816,12.3441798 722.662,11.3256918 722.649189,10.3082336 C722.633303,9.12343032 722.574371,7.93914195 722.535425,6.75536849 C722.531838,6.65032726 722.504678,6.53601768 722.537987,6.44333425 C722.754242,5.83625773 722.635353,5.22145759 722.622029,4.60459782 C722.595382,3.43936105 722.612293,2.27360936 722.619979,1.10837259 C722.622029,0.825688101 722.808562,0.702110184 723.070937,0.689752392 C723.968754,0.648559753 724.86657,0.615605642 725.763874,0.572868279 C726.241992,0.550212328 726.721134,0.526011652 727.197715,0.479669933 C727.648673,0.435902755 727.759875,0.487908461 727.7609,0.943087122 Z M634.180975,0.565041678 C635.031133,0.627860452 635.913064,0.818376408 636.728888,0.666478551 C637.853208,0.457425908 638.928845,0.78954156 640.027543,0.71024573 C640.369348,0.685530147 640.657346,1.04802537 640.692193,1.42287839 C640.765986,2.20656834 640.805958,2.99386266 640.907936,3.77394826 C641.024262,4.65753036 641.208745,5.53184413 641.334808,6.41439642 C641.450622,7.22228705 641.52749,8.03584167 641.621781,8.84682175 C641.76988,10.1284277 641.919004,11.4090039 642.065053,12.6906099 L642.287229,14.7347564 C642.325777,15.075206 642.366716,15.4153313 642.412495,15.7548273 C642.770699,18.4230805 643.151451,21.0887592 643.513755,23.7564974 C643.632132,24.6282367 643.721811,25.5040952 643.822764,26.377894 C643.88887,26.948927 643.951902,27.519445 644.015958,28.0899631 C644.023133,28.1522669 644.018521,28.2176602 644.035431,28.2779045 C644.438731,29.741273 644.444368,31.2648857 644.697007,32.7514251 C644.87944,33.826553 645.028564,34.9073448 645.205872,35.9829876 C645.260192,36.3120138 645.370882,36.6312568 645.435451,36.9597681 C645.508219,37.3315316 645.28069,37.5019662 644.918899,37.39641 C644.705719,37.3335913 644.475628,37.3135099 644.251686,37.3063011 C643.641868,37.2872495 643.031025,37.2815856 642.420182,37.2764365 C642.013295,37.273347 641.60692,37.2769514 641.200033,37.2826154 L640.354943,37.3024489 C640.214246,37.3038982 640.073663,37.3028684 639.933251,37.2970328 C639.850234,37.2934284 639.725708,37.1410157 639.703673,37.0380341 C639.634492,36.7223955 639.59452,36.3990333 639.564286,36.0767009 C639.5443,35.8614693 639.562236,35.6426334 639.560699,35.4258572 C639.559674,35.2482139 639.578122,35.0664514 639.549425,34.8929274 C639.416187,34.1097524 639.269626,33.328122 639.127164,32.5464917 C639.112303,32.4641064 639.085655,32.382751 639.077456,32.3003657 C639.056446,32.0918279 638.95498,32.0248899 638.742312,32.0398222 C638.169391,32.0810149 637.594932,32.0985218 636.934381,32.1289013 C636.519807,32.1289013 636.018116,32.1386846 635.516426,32.1268417 C634.819491,32.1113945 634.692403,32.2416662 634.595549,32.9285534 C634.407992,34.2565011 634.189687,35.5803296 633.979582,36.9057027 C633.960108,37.0287657 633.938585,37.1631567 633.872991,37.2635638 C633.812522,37.3562472 633.667498,37.4875488 633.600879,37.4669524 C633.003872,37.2826154 632.444275,37.5931049 631.863666,37.575598 C631.081664,37.5519123 630.300175,37.5344054 629.518172,37.5220476 C629.343426,37.519473 629.16663,37.5683893 628.991884,37.559121 C628.599858,37.5385246 628.46867,37.3989846 628.473166,37.0061098 C628.476357,36.7445365 628.493268,36.4803887 628.534264,36.2224198 C628.815088,34.4542258 629.095912,32.6855169 629.392622,30.9198974 C629.602215,29.6691859 629.851779,28.4251682 630.05676,27.1734269 C630.178211,26.4288699 630.164887,25.6523887 630.362181,24.9320324 C630.643005,23.9068506 630.626607,22.857983 630.769581,21.8240478 C630.944839,20.5573741 631.021707,19.2778278 631.174418,18.0080647 C631.316367,16.8242912 631.50085,15.6451519 631.670984,14.4649828 C631.687383,14.3527329 631.726329,14.2404829 631.7704,14.1349268 C631.939509,13.7317538 631.972306,13.3172529 631.979993,12.8785513 C631.988192,12.404321 632.154739,11.93421 632.210596,11.4574052 C632.295664,10.7391086 632.33461,10.0156629 632.41199,9.29633643 C632.507306,8.40091143 632.529854,7.48283049 632.755846,6.61984471 C632.977225,5.77539561 632.977737,4.92270798 633.102263,4.07825888 C633.243188,3.11486603 633.398461,2.15404773 633.559883,1.19425924 C633.585506,1.0433912 633.666986,0.89973187 633.737192,0.759676897 C633.829433,0.57739947 633.974969,0.550109346 634.180975,0.565041678 Z M674.686582,0.653657343 C674.879777,0.674253662 675.024801,1.0439576 675.00379,1.26691276 C674.970481,1.62734835 674.966381,1.9919032 674.973043,2.35388352 C674.97868,2.66746248 675.022239,2.98052654 675.037612,3.29462041 C675.068359,3.91508454 675.093982,4.53554866 675.117042,5.15652769 C675.132928,5.57978206 675.059648,5.69924071 674.649686,5.74094826 C673.593009,5.84856403 672.54197,6.02466256 671.466845,5.89645047 C670.816543,5.81818446 670.152405,5.85577274 669.494416,5.83929569 C669.297635,5.83466151 669.221792,5.9175617 669.220254,6.12300999 C669.216155,6.83667246 669.187458,7.54982002 669.182333,8.26245268 C669.181308,8.4380363 669.255101,8.61361992 669.259713,8.78971846 C669.26535,9.00649472 669.29251,9.25210583 669.205393,9.43541307 C669.082917,9.6949267 669.103928,9.91839677 669.153636,10.1815147 C669.207443,10.465229 669.191557,10.762331 669.205393,11.0537689 C669.208468,11.1150429 669.202831,11.1773468 669.210005,11.2381059 C669.2715,11.7761848 669.37604,12.3132338 669.389876,12.8523425 C669.418573,13.9532158 669.398588,15.0561487 669.398588,16.167835 C670.840628,16.201304 672.241673,16.2342581 673.590959,16.2651526 C673.64118,17.125049 673.690375,17.9380887 673.735471,18.7516433 C673.741108,18.8551398 673.752894,18.9725388 673.71446,19.0626477 C673.522803,19.5080431 673.766731,19.9488044 673.715998,20.3839016 C673.676539,20.7180769 673.554063,21.0440137 673.450035,21.3673759 C673.436711,21.4085685 673.310136,21.4271052 673.234293,21.4327692 C672.694168,21.4719022 672.153531,21.512065 671.612381,21.5388402 C671.206519,21.5589216 670.799632,21.5630409 670.393258,21.56819 C670.060164,21.5728242 669.72707,21.5687049 669.332482,21.5687049 C669.305322,22.0522035 669.252539,22.508412 669.260738,22.9635906 C669.272012,23.5397727 669.32377,24.1164696 669.37604,24.6911069 C669.395001,24.9027341 669.342731,25.0463934 669.175671,25.1812993 C669.099828,25.2425734 669.037309,25.3934414 669.055245,25.4871547 C669.18592,26.1544754 669.200269,26.8176769 669.089579,27.4896318 C669.056782,27.6899311 669.099316,27.9051626 669.124938,28.1111258 C669.166447,28.45148 669.248952,28.7892596 669.265863,29.1301287 C669.313521,30.0816787 669.336069,31.0352882 669.369891,32.0321501 C669.675825,32.0506868 669.9423,32.0836409 670.20775,32.0800366 C671.701548,32.0614999 673.195346,32.0342097 674.689145,32.0084643 C675.235931,31.999196 675.408627,32.1438851 675.427076,32.6958665 C675.442449,33.1469259 675.437325,33.59953 675.41324,34.0500745 C675.365582,34.9460144 675.405553,35.8311412 675.623857,36.7059699 C675.730447,37.1333435 675.516242,37.4355945 675.088857,37.4402287 C674.243311,37.4479523 673.397253,37.4242666 672.551706,37.4319902 C670.390183,37.450012 668.228147,37.4757574 666.066624,37.5045922 C665.73353,37.5092264 665.399411,37.5761644 665.066829,37.5689557 C664.025014,37.5473296 663.865129,37.2044008 663.862567,36.4310091 C663.858979,35.2873984 663.899463,34.1432729 663.921499,32.9996622 C663.924573,32.8529134 663.940459,32.7061647 663.940459,32.5594159 L663.940459,29.8521823 C663.941826,29.4010275 663.945242,28.9499109 663.952758,28.4988515 C664.002978,25.5293771 664.088558,22.5599028 664.128017,19.5899135 C664.161326,17.0287612 664.14544,14.466579 664.164401,11.9054267 C664.169525,11.265911 664.247418,10.62794 664.252543,9.98893916 C664.257667,9.35199798 664.213596,8.71351207 664.189511,8.07657089 L664.167988,7.92055377 C664.138266,6.58076319 664.114693,5.2404577 664.079334,3.90118202 C664.069085,3.51448612 664.019377,3.12882004 663.998879,2.74212414 C663.983505,2.43987315 663.985555,2.13659235 663.978381,1.83382645 C663.975818,1.73187467 663.985043,1.6242589 663.958395,1.5274562 C663.865129,1.19173619 663.949683,0.948699619 664.280728,0.834390046 C664.510819,0.754579308 664.773707,0.712356853 665.015584,0.731408449 C666.812754,0.870433605 668.60275,0.74891532 670.39377,0.625852311 C670.643334,0.609375256 670.898536,0.589808752 671.143488,0.622762863 C671.964949,0.732438265 672.777698,0.686611454 673.596596,0.593928016 C673.953776,0.553250285 674.324791,0.615039243 674.686582,0.653657343 Z M773.516119,0.706435411 C773.891746,0.745568418 774.27916,0.654429704 774.66145,0.644646453 C775.11702,0.633318477 775.573615,0.633318477 776.028672,0.653914796 C776.221354,0.662153324 776.37304,1.03803616 776.354592,1.2599615 C776.32282,1.63069525 776.324869,2.00503336 776.327432,2.37731183 C776.328457,2.56576815 776.371503,2.75267975 776.379702,2.94113608 C776.411474,3.66612652 776.436072,4.39214679 776.465794,5.11816705 C776.484755,5.57695007 776.416086,5.69898326 775.974352,5.74378025 C774.917163,5.85242584 773.866124,6.02492002 772.791511,5.89361848 C772.151459,5.81586737 771.497057,5.85500038 770.84983,5.83955314 C770.658685,5.83491897 770.564394,5.90391664 770.570544,6.11657364 C770.596679,7.05679562 770.616664,7.99753252 770.628963,8.93878432 C770.631013,9.11385303 770.627938,9.31312243 770.550558,9.4598712 C770.42552,9.69363943 770.443968,9.8980579 770.495213,10.143669 C770.556195,10.4361367 770.539796,10.7450815 770.554657,11.0473325 C770.55722,11.0983084 770.531597,11.1570079 770.548508,11.2007751 C770.856492,11.9916738 770.726841,12.8196458 770.743752,13.6326855 C770.760663,14.4725005 770.746827,15.3118005 770.746827,16.1680925 C772.168882,16.2010466 773.577101,16.2334858 774.940224,16.2654101 C774.988907,17.1057399 775.034002,17.877587 775.077561,18.649949 C775.083198,18.7544753 775.109845,18.8703296 775.077561,18.963013 C774.904352,19.4583545 775.086785,19.948032 775.074486,20.4377095 C775.066799,20.748199 774.911014,21.0581736 774.802886,21.3609395 C774.787,21.4057365 774.665037,21.4268477 774.589706,21.4325117 C774.039333,21.4737044 773.488446,21.514897 772.937048,21.5416722 C772.531186,21.5617536 772.124299,21.5622685 771.717412,21.5674176 C771.394567,21.571022 771.071722,21.5679325 770.670472,21.5679325 C770.649974,22.1425698 770.608977,22.6914618 770.616152,23.2403537 C770.622814,23.7217926 770.674059,24.2037465 770.723254,24.6841557 C770.744777,24.8937232 770.695582,25.0389273 770.531085,25.1779524 C770.45063,25.2454054 770.406046,25.3978181 770.406046,25.5126426 C770.407071,26.1480391 770.42142,26.7839504 770.442943,27.418832 C770.451655,27.687614 770.490601,27.9543363 770.514174,28.2220885 C770.546458,28.5953967 770.58643,28.968705 770.606415,29.3430431 C770.653048,30.2307445 770.689945,31.1194757 770.732478,32.0370417 C771.043537,32.0540337 771.312574,32.0844133 771.580587,32.0808089 C773.074385,32.0612424 774.568183,32.0339523 776.061982,32.0082069 C776.572896,31.9994535 776.752255,32.1451724 776.772753,32.6575059 C776.791201,33.1286467 776.783514,33.6028769 776.760454,34.0740177 C776.716383,34.9596595 776.754817,35.8350031 776.971584,36.6990187 C777.081761,37.1382352 776.866531,37.4363669 776.413011,37.4410011 C775.546967,37.4492396 774.679898,37.4198898 773.813341,37.4281284 C771.651305,37.4482098 769.489782,37.4780744 767.328258,37.5094838 C766.942894,37.5156627 766.553431,37.5918691 766.172679,37.5578852 C765.514177,37.4976409 765.230791,37.2592386 765.231303,36.6573111 C765.232329,35.4400686 765.254877,34.2233411 765.27025,33.0071284 C765.271788,32.8603796 765.288186,32.7131159 765.288698,32.5663672 C765.293311,31.2548965 765.279474,29.942911 765.30151,28.6319552 C765.352243,25.6202584 765.436797,22.6090765 765.475744,19.5973797 C765.509565,17.0254143 765.493167,14.4524191 765.51264,11.8804537 C765.51674,11.2522659 765.595145,10.6245931 765.599757,9.99589042 C765.604882,9.35843433 765.562348,8.72097824 765.539288,8.08300724 C765.537238,8.03151644 765.517765,7.97951074 765.51674,7.92801994 C765.48753,6.58771445 765.463957,5.24792386 765.427573,3.90813328 C765.416299,3.51062431 765.364029,3.11517498 765.342506,2.71818092 C765.326107,2.42622809 765.330207,2.13324545 765.325595,1.84077771 L765.329239,1.65453358 C765.328328,1.62388702 765.325253,1.59379351 765.317908,1.56478703 C765.207219,1.12711524 765.37684,0.842886028 765.828311,0.764620014 C766.022018,0.731665903 766.222386,0.729606271 766.420193,0.731150995 C767.107391,0.736814983 767.79459,0.762560382 768.481276,0.75792621 C769.316573,0.752262222 770.156995,0.77079891 770.986655,0.692017988 C771.835276,0.611177434 772.670573,0.617871237 773.516119,0.706435411 Z M738.362969,12 C738.309122,12.0020067 738.254762,12.0035117 738.200915,12.0055184 L738.200915,12.0055184 L738.108036,12.2411932 C738.094645,12.2806581 738.084161,12.3204018 738.079375,12.3607029 C737.922449,13.7207382 737.769626,15.0807736 737.62347,16.4413106 C737.437826,18.1700756 737.232182,19.8968339 737.091154,21.6291106 C737.03064,22.3640615 736.735764,23.0854672 736.927562,23.83898 C736.939357,23.8836288 736.9091,23.9378095 736.903459,23.9879768 C736.874228,24.2583785 736.841407,24.5282786 736.818842,24.7986803 C736.797816,25.0525268 736.809099,25.3103867 736.768072,25.5607215 C736.692687,26.0187489 736.589608,26.4732646 736.491658,26.9608907 C737.684497,26.9187502 738.844002,27.1374796 739.997865,26.8440009 C739.997865,26.7577132 740.002994,26.6970108 739.997353,26.6373117 C739.864017,25.3078784 739.7394,23.9779434 739.592218,22.6500151 C739.391189,20.832454 739.157853,19.0184046 738.968106,17.1998401 C738.828104,15.857865 738.748616,14.5103714 738.615793,13.167393 C738.577331,12.7740814 738.449637,12.3887965 738.362969,12 Z M636.771309,12.0216723 C636.725667,12.0713379 636.669769,12.1159868 636.637461,12.1736792 C636.608743,12.2253515 636.598486,12.2900673 636.591819,12.3502681 C636.440535,13.70027 636.285661,15.0497702 636.141043,16.4002738 C635.953861,18.1390722 635.747191,19.8768673 635.607189,21.6196792 C635.547701,22.3541284 635.247183,23.0750324 635.442571,23.8285452 C635.454366,23.8741974 635.426673,23.9283781 635.421032,23.979047 C635.391288,24.2584789 635.358467,24.5384124 635.334364,24.8193492 C635.313851,25.0626606 635.325646,25.3104871 635.285133,25.5507884 C635.207695,26.0113242 635.104104,26.4678465 635,26.982563 C635.485136,26.982563 635.93386,26.9895864 636.38156,26.9805563 C636.976441,26.9690178 637.571321,26.9459409 638.166202,26.9243689 C638.451335,26.9138338 638.542618,26.7894189 638.50672,26.4929302 C638.365693,25.329049 638.254922,24.1621577 638.133894,22.9957681 C637.965686,21.369846 637.799017,19.743924 637.632348,18.1185036 C637.486192,16.6952575 637.350292,15.271008 637.19029,13.8497685 C637.127725,13.2934132 637.016441,12.7420746 636.915414,12.1907361 C636.904132,12.1280269 636.821566,12.077358 636.771309,12.0216723 Z" id="logo"></path>
            </g>
        </g>
    </g>
</svg>