<?xml version="1.0" encoding="UTF-8"?>
<svg width="24px" height="24px" viewBox="0 0 24 24" version="1.1" xmlns="http://www.w3.org/2000/svg" xmlns:xlink="http://www.w3.org/1999/xlink">
    <!-- Generator: Sketch 58 (84663) - https://sketch.com -->
    <title>icon-instagram</title>
    <desc>Created with Sketch.</desc>
    <g id="Page-1" stroke="none" stroke-width="1" fill="none" fill-rule="evenodd">
        <g id="Homepage" transform="translate(-1342.000000, -3290.000000)" fill="#E8E0DD" fill-rule="nonzero">
            <g id="Footer" transform="translate(0.000000, 3146.000000)">
                <g id="Group-9" transform="translate(1342.000000, 144.000000)">
                    <path d="M16.5,0 C20.5602941,0 23.8679931,3.22808535 23.9961457,7.25730488 L24,7.5 L24,16.5 C24,20.5602941 20.7719146,23.8679931 16.7426951,23.9961457 L16.5,24 L7.5,24 C3.43970588,24 0.13200692,20.7719146 0.00385428681,16.7426951 L0,16.5 L0,7.5 C0,3.43970588 3.22808535,0.13200692 7.25730488,0.00385428681 L7.5,0 L16.5,0 Z M16.5,2.25 L7.5,2.25 C4.677375,2.25 2.3680875,4.48872187 2.25438727,7.28391586 L2.25,7.5 L2.25,16.5 C2.25,19.322625 4.48872187,21.6319125 7.28391586,21.7456127 L7.5,21.75 L16.5,21.75 C19.322625,21.75 21.6319125,19.5112781 21.7456127,16.7160841 L21.75,16.5 L21.75,7.5 C21.75,4.605 19.395,2.25 16.5,2.25 Z M12,6 C15.3135,6 18,8.6865 18,12 C18,15.3135 15.3135,18 12,18 C8.6865,18 6,15.3135 6,12 C6,8.6865 8.6865,6 12,6 Z M12,8.25 C9.933,8.25 8.25,9.9315 8.25,12 C8.25,14.067 9.933,15.75 12,15.75 C14.067,15.75 15.75,14.067 15.75,12 C15.75,9.9315 14.067,8.25 12,8.25 Z M18.45,4.7505 C18.8915517,4.7505 19.2495,5.10844834 19.2495,5.55 C19.2495,5.99155166 18.8915517,6.3495 18.45,6.3495 C18.0084483,6.3495 17.6505,5.99155166 17.6505,5.55 C17.6505,5.10844834 18.0084483,4.7505 18.45,4.7505 Z" id="icon-instagram"></path>
                </g>
            </g>
        </g>
    </g>
</svg>