<?xml version="1.0" encoding="UTF-8"?>
<svg width="24px" height="24px" viewBox="0 0 24 24" version="1.1" xmlns="http://www.w3.org/2000/svg" xmlns:xlink="http://www.w3.org/1999/xlink">
    <!-- Generator: Sketch 58 (84663) - https://sketch.com -->
    <title>Path</title>
    <desc>Created with Sketch.</desc>
    <g id="Page-1" stroke="none" stroke-width="1" fill="none" fill-rule="evenodd">
        <g id="Homepage" transform="translate(-1381.000000, -3290.000000)" fill="#E8E0DD" fill-rule="nonzero">
            <g id="Footer" transform="translate(0.000000, 3146.000000)">
                <g id="Group-9" transform="translate(1342.000000, 144.000000)">
                    <path d="M59.484375,0 L42.515625,0 C40.5772705,0 39,1.57727053 39,3.515625 L39,20.484375 C39,22.4227295 40.5772705,24 42.515625,24 L49.59375,24 L49.59375,15.515625 L46.78125,15.515625 L46.78125,11.296875 L49.59375,11.296875 L49.59375,8.4375 C49.59375,6.11114503 51.486145,4.21875 53.8125,4.21875 L58.078125,4.21875 L58.078125,8.4375 L53.8125,8.4375 L53.8125,11.296875 L58.078125,11.296875 L57.375,15.515625 L53.8125,15.515625 L53.8125,24 L59.484375,24 C61.4227295,24 63,22.4227295 63,20.484375 L63,3.515625 C63,1.57727053 61.4227295,0 59.484375,0 Z" id="Path"></path>
                </g>
            </g>
        </g>
    </g>
</svg>